<?xml version="1.0" encoding="UTF-8" standalone="no"?>
<svg
   width="1085.6436"
   height="327.65607"
   viewBox="0 0 1085.6436 327.65607"
   version="1.1"
   xml:space="preserve"
   style="clip-rule:evenodd;fill-rule:evenodd;stroke-linejoin:round;stroke-miterlimit:2"
   id="svg26"
   sodipodi:docname="logo.svg"
   inkscape:version="1.1 (c68e22c387, 2021-05-23)"
   xmlns:inkscape="http://www.inkscape.org/namespaces/inkscape"
   xmlns:sodipodi="http://sodipodi.sourceforge.net/DTD/sodipodi-0.dtd"
   xmlns="http://www.w3.org/2000/svg"
   xmlns:svg="http://www.w3.org/2000/svg"><defs
   id="defs30" /><sodipodi:namedview
   id="namedview28"
   pagecolor="#ffffff"
   bordercolor="#666666"
   borderopacity="1.0"
   inkscape:pageshadow="2"
   inkscape:pageopacity="0.0"
   inkscape:pagecheckerboard="0"
   showgrid="false"
   inkscape:zoom="0.2369697"
   inkscape:cx="550.70332"
   inkscape:cy="983.24808"
   inkscape:window-width="1920"
   inkscape:window-height="986"
   inkscape:window-x="-11"
   inkscape:window-y="-11"
   inkscape:window-maximized="1"
   inkscape:current-layer="svg26" />
    <g
   transform="translate(-965.06,-622.32214)"
   id="g18">
        <g
   transform="matrix(9.60658,0,0,9.60658,-11879.3,-6939.92)"
   id="g4">
            <path
   d="m 1337.04,787.194 h 39.99 v 17.31 l -0.78,0.049 c -0.41,-4.33 -1.71,-8.049 -3.91,-11.158 -2.6,-3.532 -5.9,-5.297 -9.91,-5.297 h -1.78 v 26.049 c 0,4.134 2.06,6.201 6.18,6.201 h 5.15 v 0.953 h -29.79 v -0.953 h 5.11 c 4.13,0 6.2,-2.067 6.2,-6.201 v -26.049 h -2.2 c -4.07,0 -7.37,1.904 -9.91,5.712 -1.26,1.872 -2.21,4.102 -2.86,6.69 -0.21,0.879 -0.42,2.213 -0.63,4.004 h -0.86 z"
   style="fill:#cd5353;fill-rule:nonzero"
   id="path2" />
        </g>
        <path
   d="m 1015.82,673.613 -0.03,0.04 0.01,-0.017 z m 0.98,-1.19 -0.05,0.055 0.03,-0.03 z m 71.37,-50.091 -3.52,9.955 c -26.05,3.947 -48.42,17.033 -67.12,39.254 l -0.27,0.32 -52.2,-26.696 v -22.833 z"
   style="fill:#c41d1d;fill-rule:nonzero"
   id="path6" />
        <path
   d="m 1088.17,622.332 h 103.69 v 66.965 h -68.72 V 631.01 h -21.11 c -5.97,0 -11.76,0.426 -17.38,1.277 0,0 3.52,-9.955 3.52,-9.955 z m -7.13,10.565 -0.01,0.002 z m 2.1,-0.37 -0.07,0.012 0.03,-0.005 z m 0.52,-0.085 -0.1,0.016 0.05,-0.009 z m 0.5,-0.08 -0.09,0.016 0.06,-0.011 z"
   style="fill:#ba0000;fill-rule:nonzero"
   id="path8" />
        <path
   d="m 1349.23,681.443 -26.17,33.65 c -5.25,-11.77 -11.54,-22.832 -18.86,-33.189 -25.02,-33.93 -56.76,-50.894 -95.22,-50.894 h -17.12 v -8.678 h 157.37 z"
   style="fill:#9d1616;fill-rule:nonzero"
   id="path10" />
        <g
   transform="translate(237.215,-43.5258)"
   id="g14">
            <path
   d="m 885.922,847.916 68.719,31.511 v -30.098 75.456 c 0,2.359 0.07,4.648 0.209,6.866 l -36.725,61.853 h -36.709 l -13.74,-21.028 c 12.164,-9.816 18.246,-25.713 18.246,-47.691 z"
   style="fill:#c14141;fill-rule:nonzero"
   id="path12" />
        </g>
        <path
   d="m 965.06,645.165 52.2,26.696 c -3.62,4.335 -7.11,9.01 -10.45,14.03 -12.042,17.981 -21.189,39.402 -27.443,64.263 -2.033,8.443 -4.066,21.264 -6.098,38.464 h -8.209 z"
   style="fill:#910000;fill-rule:nonzero"
   id="path16" />
    </g>
    <g
   transform="matrix(1.38757,0,0,1.38757,-1207.224,-981.14694)"
   id="g24">
        <text
   x="1209.76"
   y="848.36298"
   style="font-weight:500;font-stretch:expanded;font-size:66.667px;font-family:EngraversMT, 'Engravers MT', serif"
   id="text22">T<tspan
   x="1284.48 1362.8101 1441.14 1516.03 1590.91"
   y="848.36298 848.36298 848.36298 848.36298 848.36298"
   id="tspan20">ABLED</tspan></text>
    </g>
</svg>
