<?xml version="1.0" encoding="UTF-8" standalone="no"?>
<!DOCTYPE svg PUBLIC "-//W3C//DTD SVG 1.1//EN" "http://www.w3.org/Graphics/SVG/1.1/DTD/svg11.dtd">
<svg width="100%" height="100%" viewBox="0 0 2550 3300" version="1.1" xmlns="http://www.w3.org/2000/svg" xmlns:xlink="http://www.w3.org/1999/xlink" xml:space="preserve" xmlns:serif="http://www.serif.com/" style="fill-rule:evenodd;clip-rule:evenodd;stroke-linejoin:round;stroke-miterlimit:2;">
    <g transform="matrix(1,0,0,1,72.9643,-436.086)">
        <path d="M1115.74,1131.28C1115.74,1131.28 1195.44,1103.19 1292.41,1106.49C1382.62,1109.55 1488.34,1142.54 1544.41,1179.1C1562.8,1191.09 1594.6,1209.64 1620.2,1230.3C1664.32,1265.9 1705.1,1310.88 1735.81,1361.84C1751.27,1387.48 1777.6,1436.67 1794.07,1488.48C1808.96,1535.34 1814.83,1586.43 1814.83,1586.43L1275,1650L1115.74,1131.28Z" style="fill:rgb(185,0,10);"/>
    </g>
    <path d="M1536.63,1784.66C1528.48,1788.48 1395.89,1849.37 1262.57,1836.53C1093.77,1820.29 993.042,1740.42 993.042,1740.42L1301.84,1294.42L1840.65,1230.85C1840.65,1230.85 1848.59,1288.59 1840.65,1357.99C1833.4,1421.44 1811.45,1494.85 1787.56,1538.41C1768.74,1572.72 1726.13,1640.51 1683.98,1680.76C1612.77,1748.76 1537.02,1784.48 1537.02,1784.48L1536.63,1784.66Z" style="fill:rgb(0,137,255);"/>
    <g transform="matrix(1,0,0,1,2.19939e-05,-368.996)">
        <path d="M1275,1650L799.081,1389.53C799.081,1389.53 807.285,1374.26 819.258,1355.74C831.564,1336.7 847.784,1314.23 858.21,1301.3C877.32,1277.59 924.051,1236.41 924.051,1236.41L1275,1650Z" style="fill:rgb(186,0,255);"/>
    </g>
    <g transform="matrix(1,0,0,1,-43.6086,-563.557)">
        <path d="M924.051,1235.1C924.051,1235.1 948.221,1216.95 973.918,1199.48C987.783,1190.05 1002.09,1180.83 1013.29,1174.76C1027.63,1167 1053.89,1153.08 1077.49,1143.55C1097.06,1135.64 1115.74,1131.28 1115.74,1131.28L1275,1650L924.051,1235.1Z" style="fill:rgb(0,12,255);"/>
    </g>
    <g transform="matrix(1,0,0,1,-53.6721,-335.451)">
        <path d="M1275,1650L966.206,2097.22L965.856,2095.73C959.912,2091.23 879.674,2030.04 850.143,1988.84C814.354,1938.91 770.461,1863.47 751.467,1796.4C732.473,1729.33 732.161,1626.84 740.097,1559.03C748.032,1491.22 799.081,1389.53 799.081,1389.53L1275,1650Z" style="fill:rgb(255,110,111);"/>
    </g>
    <g transform="matrix(0.593008,-0.593008,0.593008,0.593008,146.47,1562.32)">
        <path d="M1709.63,660.618C1706.53,667.066 1699.93,671.52 1692.3,671.52C1681.68,671.52 1673.06,662.901 1673.06,652.284C1673.06,641.667 1681.68,633.048 1692.3,633.048C1700.22,633.048 1707.04,637.853 1709.98,644.705L2306.9,644.705L2306.9,660.618L1709.63,660.618ZM1692.3,641.69C1698.14,641.69 1702.89,646.437 1702.89,652.284C1702.89,658.131 1698.14,662.878 1692.3,662.878C1686.45,662.878 1681.7,658.131 1681.7,652.284C1681.7,646.437 1686.45,641.69 1692.3,641.69Z" style="fill:rgb(29,29,29);"/>
    </g>
    <g transform="matrix(0.516567,0.660664,-0.660664,0.516567,1028.58,63.9128)">
        <path d="M1709.63,660.618C1706.53,667.066 1699.93,671.52 1692.3,671.52C1681.68,671.52 1673.06,662.901 1673.06,652.284C1673.06,641.667 1681.68,633.048 1692.3,633.048C1700.22,633.048 1707.04,637.853 1709.98,644.705L2306.9,644.705L2306.9,660.618L1709.63,660.618ZM1692.3,641.69C1698.14,641.69 1702.89,646.437 1702.89,652.284C1702.89,658.131 1698.14,662.878 1692.3,662.878C1686.45,662.878 1681.7,658.131 1681.7,652.284C1681.7,646.437 1686.45,641.69 1692.3,641.69Z" style="fill:rgb(29,29,29);"/>
    </g>
</svg>
